<svg width="230" height="40" viewBox="0 0 230 40" fill="none" xmlns="http://www.w3.org/2000/svg">
<rect width="40" height="40" rx="8" fill="#1DDD7A"/>
<path d="M25.009 31L19.0365 31C18.2058 31 17.7373 30.0459 18.2452 29.3886L25.0275 20.6114C25.3058 20.2513 25.3058 19.7487 25.0275 19.3886L18.2452 10.6114C17.7373 9.95414 18.2058 9 19.0365 9L25.009 9C25.3187 9 25.6109 9.14349 25.8002 9.38855L33.5275 19.3886C33.8058 19.7487 33.8058 20.2513 33.5275 20.6114L25.8002 30.6114C25.6109 30.8565 25.3187 31 25.009 31Z" fill="white"/>
<path d="M12.488 29L8.46682 29C7.85499 29 7.50059 28.3069 7.85881 27.8109L13.1829 20.4391C13.3722 20.177 13.3722 19.823 13.1829 19.5609L7.85881 12.1891C7.50059 11.6931 7.85499 11 8.46682 11L12.488 11C12.7167 11 12.9329 11.1044 13.0752 11.2835L19.6294 19.5335C19.8464 19.8066 19.8464 20.1934 19.6294 20.4665L13.0752 28.7165C12.9329 28.8956 12.7167 29 12.488 29Z" fill="white"/>
<path d="M221.778 10.1599C223.724 10.1599 225.244 10.7733 226.338 11.9999C227.431 13.2266 227.978 14.9199 227.978 17.0799V30.4399C227.978 30.5733 227.924 30.6933 227.818 30.7999C227.738 30.8799 227.631 30.9199 227.498 30.9199H223.818C223.684 30.9199 223.564 30.8799 223.458 30.7999C223.378 30.6933 223.338 30.5733 223.338 30.4399V17.7199C223.338 16.6266 223.058 15.7599 222.498 15.1199C221.964 14.4799 221.231 14.1599 220.298 14.1599C219.338 14.1599 218.564 14.4933 217.978 15.1599C217.418 15.7999 217.138 16.6666 217.138 17.7599V30.4399C217.138 30.5733 217.084 30.6933 216.978 30.7999C216.898 30.8799 216.791 30.9199 216.658 30.9199H212.978C212.844 30.9199 212.724 30.8799 212.618 30.7999C212.538 30.6933 212.498 30.5733 212.498 30.4399V3.39992C212.498 3.26659 212.538 3.15992 212.618 3.07992C212.724 2.97325 212.844 2.91992 212.978 2.91992H216.658C216.791 2.91992 216.898 2.97325 216.978 3.07992C217.084 3.15992 217.138 3.26659 217.138 3.39992V11.9999C217.138 12.0799 217.164 12.1333 217.218 12.1599C217.271 12.1866 217.324 12.1599 217.378 12.0799C218.444 10.7999 219.911 10.1599 221.778 10.1599Z" fill="#15DB75"/>
<path d="M202.075 31.2399C199.915 31.2399 198.142 30.6932 196.755 29.5999C195.395 28.4799 194.568 26.9599 194.275 25.0399C194.062 23.9466 193.955 22.4799 193.955 20.6399C193.955 18.9599 194.062 17.5066 194.275 16.2799C194.568 14.4132 195.408 12.9332 196.795 11.8399C198.182 10.7199 199.942 10.1599 202.075 10.1599C204.128 10.1599 205.862 10.6932 207.275 11.7599C208.688 12.7999 209.542 14.1732 209.835 15.8799C209.862 15.9866 209.888 16.1199 209.915 16.2799C209.942 16.4399 209.955 16.6399 209.955 16.8799V16.9599C209.955 17.1999 209.808 17.3466 209.515 17.3999L205.875 17.7599H205.795C205.555 17.7599 205.408 17.6132 205.355 17.3199C205.355 17.1332 205.328 16.9332 205.275 16.7199C205.142 15.9999 204.782 15.3999 204.195 14.9199C203.635 14.4132 202.915 14.1599 202.035 14.1599C201.155 14.1599 200.422 14.4266 199.835 14.9599C199.275 15.4932 198.928 16.1999 198.795 17.0799C198.662 18.0932 198.595 19.2932 198.595 20.6799C198.595 22.1999 198.675 23.4266 198.835 24.3599C198.968 25.2399 199.315 25.9466 199.875 26.4799C200.435 26.9866 201.155 27.2399 202.035 27.2399C202.942 27.2399 203.675 26.9866 204.235 26.4799C204.822 25.9466 205.168 25.3066 205.275 24.5599L205.315 24.1599C205.342 24.0266 205.408 23.9199 205.515 23.8399C205.622 23.7332 205.742 23.6932 205.875 23.7199L209.475 24.0399C209.795 24.0932 209.955 24.2666 209.955 24.5599L209.875 25.2399C209.635 27.0532 208.808 28.5066 207.395 29.5999C205.982 30.6932 204.208 31.2399 202.075 31.2399Z" fill="#15DB75"/>
<path d="M192.185 13.52C192.185 13.6533 192.132 13.7733 192.025 13.88C191.945 13.96 191.838 14 191.705 14H188.465C188.332 14 188.265 14.0667 188.265 14.2V24.24C188.265 25.2267 188.452 25.9333 188.825 26.36C189.225 26.76 189.838 26.9467 190.665 26.92H191.385C191.518 26.92 191.625 26.9733 191.705 27.08C191.812 27.16 191.865 27.2667 191.865 27.4V30.44C191.865 30.7333 191.705 30.9067 191.385 30.96H189.705C187.732 30.96 186.252 30.6133 185.265 29.92C184.278 29.2267 183.785 27.92 183.785 26V14.2C183.785 14.0667 183.718 14 183.585 14H181.745C181.612 14 181.492 13.96 181.385 13.88C181.305 13.7733 181.265 13.6533 181.265 13.52V10.96C181.265 10.8267 181.305 10.72 181.385 10.64C181.492 10.5333 181.612 10.48 181.745 10.48H183.585C183.718 10.48 183.785 10.4133 183.785 10.28V5.71999C183.785 5.58665 183.825 5.47999 183.905 5.39999C184.012 5.29332 184.132 5.23999 184.265 5.23999H187.785C187.918 5.23999 188.025 5.29332 188.105 5.39999C188.212 5.47999 188.265 5.58665 188.265 5.71999V10.28C188.265 10.4133 188.332 10.48 188.465 10.48H191.705C191.838 10.48 191.945 10.5333 192.025 10.64C192.132 10.72 192.185 10.8267 192.185 10.96V13.52Z" fill="#15DB75"/>
<path d="M171.72 10.1599C173.24 10.1599 174.587 10.4532 175.76 11.0399C176.933 11.5999 177.84 12.3866 178.48 13.3999C179.147 14.4132 179.48 15.5732 179.48 16.8799V30.4399C179.48 30.5732 179.427 30.6932 179.32 30.7999C179.24 30.8799 179.133 30.9199 179 30.9199H175.32C175.187 30.9199 175.067 30.8799 174.96 30.7999C174.88 30.6932 174.84 30.5732 174.84 30.4399V29.4399C174.84 29.3599 174.813 29.3066 174.76 29.2799C174.707 29.2532 174.653 29.2666 174.6 29.3199C173.48 30.5999 171.867 31.2399 169.76 31.2399C168 31.2399 166.507 30.7732 165.28 29.8399C164.053 28.8799 163.44 27.3332 163.44 25.1999C163.44 22.9599 164.147 21.2932 165.56 20.1999C167 19.1066 168.973 18.5599 171.48 18.5599H174.64C174.773 18.5599 174.84 18.4932 174.84 18.3599V17.3599C174.84 16.3732 174.56 15.5999 174 15.0399C173.467 14.4532 172.72 14.1599 171.76 14.1599C170.987 14.1599 170.347 14.3466 169.84 14.7199C169.36 15.0666 169.053 15.5466 168.92 16.1599C168.84 16.4532 168.653 16.5999 168.36 16.5999L164.48 16.3599C164.347 16.3599 164.227 16.3199 164.12 16.2399C164.04 16.1332 164.013 16.0266 164.04 15.9199C164.2 14.2132 164.987 12.8266 166.4 11.7599C167.84 10.6932 169.613 10.1599 171.72 10.1599ZM170.96 27.4799C172 27.4799 172.907 27.1866 173.68 26.5999C174.453 25.9866 174.84 25.1866 174.84 24.1999V22.1199C174.84 21.9866 174.773 21.9199 174.64 21.9199H171.96C170.787 21.9199 169.853 22.1732 169.16 22.6799C168.493 23.1866 168.16 23.9199 168.16 24.8799C168.16 25.7332 168.413 26.3866 168.92 26.8399C169.453 27.2666 170.133 27.4799 170.96 27.4799Z" fill="#15DB75"/>
<path d="M155.117 10.1599C157.011 10.1599 158.464 10.7732 159.477 11.9999C160.517 13.2266 161.037 14.9332 161.037 17.1199V30.4399C161.037 30.5732 160.984 30.6932 160.877 30.7999C160.797 30.8799 160.691 30.9199 160.557 30.9199H156.917C156.784 30.9199 156.664 30.8799 156.557 30.7999C156.477 30.6932 156.437 30.5732 156.437 30.4399V17.7599C156.437 16.6399 156.171 15.7599 155.637 15.1199C155.104 14.4799 154.397 14.1599 153.517 14.1599C152.584 14.1599 151.837 14.4799 151.277 15.1199C150.744 15.7599 150.477 16.6266 150.477 17.7199V30.4399C150.477 30.5732 150.424 30.6932 150.317 30.7999C150.237 30.8799 150.131 30.9199 149.997 30.9199H146.317C146.184 30.9199 146.064 30.8799 145.957 30.7999C145.877 30.6932 145.837 30.5732 145.837 30.4399V17.7599C145.837 16.6399 145.571 15.7599 145.037 15.1199C144.504 14.4799 143.797 14.1599 142.917 14.1599C141.984 14.1599 141.237 14.4799 140.677 15.1199C140.144 15.7599 139.877 16.6266 139.877 17.7199V30.4399C139.877 30.5732 139.824 30.6932 139.717 30.7999C139.637 30.8799 139.531 30.9199 139.397 30.9199H135.757C135.624 30.9199 135.504 30.8799 135.397 30.7999C135.317 30.6932 135.277 30.5732 135.277 30.4399V10.9599C135.277 10.8266 135.317 10.7199 135.397 10.6399C135.504 10.5332 135.624 10.4799 135.757 10.4799H139.397C139.531 10.4799 139.637 10.5332 139.717 10.6399C139.824 10.7199 139.877 10.8266 139.877 10.9599V11.9599C139.877 12.0399 139.904 12.0932 139.957 12.1199C140.011 12.1199 140.064 12.0932 140.117 12.0399C141.211 10.7866 142.691 10.1599 144.557 10.1599C145.731 10.1599 146.744 10.4132 147.597 10.9199C148.451 11.3999 149.117 12.0932 149.597 12.9999C149.651 13.0532 149.704 13.0799 149.757 13.0799C149.811 13.0799 149.851 13.0266 149.877 12.9199C150.491 11.9599 151.251 11.2666 152.157 10.8399C153.091 10.3866 154.077 10.1599 155.117 10.1599Z" fill="#15DB75"/>
<path d="M123.146 31.16C120.826 31.16 118.973 30.64 117.586 29.6C116.199 28.56 115.506 27.2 115.506 25.52V25.2C115.506 25.0667 115.546 24.96 115.626 24.88C115.733 24.7733 115.853 24.72 115.986 24.72H119.466C119.599 24.72 119.706 24.7733 119.786 24.88C119.893 24.96 119.946 25.0667 119.946 25.2V25.32C119.946 25.96 120.253 26.52 120.866 27C121.479 27.4533 122.239 27.68 123.146 27.68C124.026 27.68 124.733 27.4667 125.266 27.04C125.826 26.6133 126.106 26.08 126.106 25.44C126.106 24.8 125.826 24.3067 125.266 23.96C124.733 23.6133 123.893 23.24 122.746 22.84L121.706 22.48C119.893 21.8933 118.439 21.16 117.346 20.28C116.253 19.3733 115.706 18.04 115.706 16.28C115.706 14.4133 116.373 12.9467 117.706 11.88C119.039 10.7867 120.799 10.24 122.986 10.24C125.253 10.24 127.053 10.8 128.386 11.92C129.746 13.0133 130.426 14.48 130.426 16.32V16.36C130.426 16.4933 130.373 16.6133 130.266 16.72C130.186 16.8 130.079 16.84 129.946 16.84H126.586C126.453 16.84 126.333 16.8 126.226 16.72C126.146 16.6133 126.106 16.4933 126.106 16.36V16.2C126.106 15.5333 125.826 14.9867 125.266 14.56C124.706 14.1067 123.973 13.88 123.066 13.88C122.186 13.88 121.479 14.0933 120.946 14.52C120.413 14.92 120.146 15.44 120.146 16.08C120.146 16.5867 120.333 17.0133 120.706 17.36C121.079 17.68 121.493 17.9333 121.946 18.12C122.426 18.3067 123.253 18.6 124.426 19C125.679 19.4267 126.733 19.8667 127.586 20.32C128.466 20.7733 129.213 21.4 129.826 22.2C130.439 23 130.746 24.0133 130.746 25.24C130.746 27.08 130.053 28.5333 128.666 29.6C127.306 30.64 125.466 31.16 123.146 31.16Z" fill="#3E3E3E"/>
<path d="M112.967 17.2799C113.047 18.1599 113.087 19.1732 113.087 20.3199L113.047 22.0399C113.047 22.3599 112.887 22.5199 112.567 22.5199H101.847C101.714 22.5199 101.647 22.5866 101.647 22.7199C101.7 23.4666 101.754 24.0132 101.807 24.3599C101.94 25.2399 102.314 25.9466 102.927 26.4799C103.54 27.0132 104.314 27.2799 105.247 27.2799C106.047 27.2532 106.714 27.0532 107.247 26.6799C107.807 26.3066 108.234 25.7866 108.527 25.1199C108.66 24.8266 108.86 24.7199 109.127 24.7999L112.407 25.4799C112.727 25.5866 112.834 25.7866 112.727 26.0799C112.194 27.7332 111.274 29.0132 109.967 29.9199C108.687 30.7999 107.114 31.2399 105.247 31.2399C103.034 31.2399 101.26 30.7066 99.9268 29.6399C98.5935 28.5732 97.7268 27.0932 97.3268 25.1999C97.1935 24.4799 97.1002 23.7199 97.0468 22.9199C97.0202 22.1199 97.0068 21.0532 97.0068 19.7199C97.0068 18.3332 97.0735 17.2799 97.2068 16.5599C97.4735 14.6132 98.3002 13.0666 99.6868 11.9199C101.074 10.7466 102.834 10.1599 104.967 10.1599C107.287 10.1599 109.154 10.8132 110.567 12.1199C112.007 13.4266 112.807 15.1466 112.967 17.2799ZM105.007 14.1599C104.127 14.1599 103.394 14.4266 102.807 14.9599C102.247 15.4666 101.9 16.1599 101.767 17.0399C101.687 17.6266 101.647 18.2932 101.647 19.0399C101.647 19.1732 101.714 19.2399 101.847 19.2399H108.207C108.34 19.2399 108.407 19.1732 108.407 19.0399C108.354 18.1332 108.3 17.4799 108.247 17.0799C108.14 16.1999 107.794 15.4932 107.207 14.9599C106.62 14.4266 105.887 14.1599 105.007 14.1599Z" fill="#3E3E3E"/>
<path d="M89.4571 30.9199C89.3237 30.9199 89.2037 30.8799 89.097 30.7999C89.017 30.6933 88.9771 30.5733 88.9771 30.4399V3.39992C88.9771 3.26659 89.017 3.15992 89.097 3.07992C89.2037 2.97325 89.3237 2.91992 89.4571 2.91992H93.1371C93.2704 2.91992 93.3771 2.97325 93.4571 3.07992C93.5637 3.15992 93.6171 3.26659 93.6171 3.39992V30.4399C93.6171 30.5733 93.5637 30.6933 93.4571 30.7999C93.3771 30.8799 93.2704 30.9199 93.1371 30.9199H89.4571Z" fill="#3E3E3E"/>
<path d="M82.1628 7.68C81.3361 7.68 80.6561 7.41333 80.1228 6.88C79.6161 6.34667 79.3628 5.66667 79.3628 4.84C79.3628 4.01333 79.6161 3.33333 80.1228 2.8C80.6561 2.26667 81.3361 2 82.1628 2C83.0161 2 83.6961 2.26667 84.2028 2.8C84.7361 3.30667 85.0028 3.98667 85.0028 4.84C85.0028 5.66667 84.7361 6.34667 84.2028 6.88C83.6695 7.41333 82.9895 7.68 82.1628 7.68ZM80.3228 30.92C80.1895 30.92 80.0695 30.88 79.9628 30.8C79.8828 30.6933 79.8428 30.5733 79.8428 30.44V10.92C79.8428 10.7867 79.8828 10.68 79.9628 10.6C80.0695 10.4933 80.1895 10.44 80.3228 10.44H84.0028C84.1361 10.44 84.2428 10.4933 84.3228 10.6C84.4295 10.68 84.4828 10.7867 84.4828 10.92V30.44C84.4828 30.5733 84.4295 30.6933 84.3228 30.8C84.2428 30.88 84.1361 30.92 84.0028 30.92H80.3228Z" fill="#3E3E3E"/>
<path d="M70.0002 10.1599C71.8935 10.1599 73.3468 10.7732 74.3602 11.9999C75.4002 13.2266 75.9202 14.9332 75.9202 17.1199V30.4399C75.9202 30.5732 75.8668 30.6932 75.7602 30.7999C75.6802 30.8799 75.5735 30.9199 75.4402 30.9199H71.8002C71.6668 30.9199 71.5468 30.8799 71.4402 30.7999C71.3602 30.6932 71.3202 30.5732 71.3202 30.4399V17.7599C71.3202 16.6399 71.0535 15.7599 70.5202 15.1199C69.9868 14.4799 69.2802 14.1599 68.4002 14.1599C67.4668 14.1599 66.7202 14.4799 66.1602 15.1199C65.6268 15.7599 65.3602 16.6266 65.3602 17.7199V30.4399C65.3602 30.5732 65.3068 30.6932 65.2002 30.7999C65.1202 30.8799 65.0135 30.9199 64.8802 30.9199H61.2002C61.0668 30.9199 60.9468 30.8799 60.8402 30.7999C60.7602 30.6932 60.7202 30.5732 60.7202 30.4399V17.7599C60.7202 16.6399 60.4535 15.7599 59.9202 15.1199C59.3868 14.4799 58.6802 14.1599 57.8002 14.1599C56.8668 14.1599 56.1202 14.4799 55.5602 15.1199C55.0268 15.7599 54.7602 16.6266 54.7602 17.7199V30.4399C54.7602 30.5732 54.7068 30.6932 54.6002 30.7999C54.5202 30.8799 54.4135 30.9199 54.2802 30.9199H50.6402C50.5068 30.9199 50.3868 30.8799 50.2802 30.7999C50.2002 30.6932 50.1602 30.5732 50.1602 30.4399V10.9599C50.1602 10.8266 50.2002 10.7199 50.2802 10.6399C50.3868 10.5332 50.5068 10.4799 50.6402 10.4799H54.2802C54.4135 10.4799 54.5202 10.5332 54.6002 10.6399C54.7068 10.7199 54.7602 10.8266 54.7602 10.9599V11.9599C54.7602 12.0399 54.7868 12.0932 54.8402 12.1199C54.8935 12.1199 54.9468 12.0932 55.0002 12.0399C56.0935 10.7866 57.5735 10.1599 59.4402 10.1599C60.6135 10.1599 61.6268 10.4132 62.4802 10.9199C63.3335 11.3999 64.0002 12.0932 64.4802 12.9999C64.5335 13.0532 64.5868 13.0799 64.6402 13.0799C64.6935 13.0799 64.7335 13.0266 64.7602 12.9199C65.3735 11.9599 66.1335 11.2666 67.0402 10.8399C67.9735 10.3866 68.9602 10.1599 70.0002 10.1599Z" fill="#3E3E3E"/>
</svg>
