<svg width="40" height="40" viewBox="0 0 40 40" fill="none" xmlns="http://www.w3.org/2000/svg">
<rect width="40" height="40" rx="8" fill="#1DDD7A"/>
<path d="M25.009 31L19.0365 31C18.2058 31 17.7373 30.0459 18.2452 29.3886L25.0275 20.6114C25.3058 20.2513 25.3058 19.7487 25.0275 19.3886L18.2452 10.6114C17.7373 9.95414 18.2058 9 19.0365 9L25.009 9C25.3187 9 25.6109 9.14349 25.8002 9.38855L33.5275 19.3886C33.8058 19.7487 33.8058 20.2513 33.5275 20.6114L25.8002 30.6114C25.6109 30.8565 25.3187 31 25.009 31Z" fill="white"/>
<path d="M12.488 29L8.46682 29C7.85499 29 7.50059 28.3069 7.85881 27.8109L13.1829 20.4391C13.3722 20.177 13.3722 19.823 13.1829 19.5609L7.85881 12.1891C7.50059 11.6931 7.85499 11 8.46682 11L12.488 11C12.7167 11 12.9329 11.1044 13.0752 11.2835L19.6294 19.5335C19.8464 19.8066 19.8464 20.1934 19.6294 20.4665L13.0752 28.7165C12.9329 28.8956 12.7167 29 12.488 29Z" fill="white"/>
</svg>
